<svg xmlns="http://www.w3.org/2000/svg" version="1.1" xmlns:xlink="http://www.w3.org/1999/xlink" xmlns:svgjs="http://svgjs.com/svgjs" width="275" height="275"><svg xmlns="http://www.w3.org/2000/svg" width="275" height="275" fill="none"><g><path fill="url(#green)" d="M0 0h275v415H0z"></path></g><svg xmlns="http://www.w3.org/2000/svg" width="250" height="335" fill="none" id="SvgjsSvg1005" x="32" viewBox="0 0 260 415"><svg xmlns="http://www.w3.org/2000/svg" width="210" height="335" fill="none"><style>.legColor1 {fill:#575757;}.legColor2 {fill:#DBDBDB;}.legStroke {stroke:#000;stroke-linecap:round;stroke-miterlimit:10;}</style><path class="legColor1" d="m72.7 249.8 16.3 5.4 16 1.3 16-1.3 16.3-5.4v30.7l-7.5 3.4-8 2.4-16.8-4.4-15.4 4.4-9.4-2.4-7.5-3.4v-30.7Z"></path><path stroke="#000" stroke-linecap="round" stroke-linejoin="round" stroke-dasharray="3.97 3.97" stroke-width="1.8" d="M79 278v-22.3M131.5 278v-22.3"></path><path class="legColor2" d="m73.7 276.7 15.4 4.8 15.9-4.8 15.4 4.8 15.9-4.8v5.7l-16 3.9-15.3-4.4-15.9 4.9-15.4-4.4v-5.7Z"></path><path class="legStroke" stroke-width="2.5" d="M74.7 281.7a24 24 0 0 0 29.8-.7"></path><path class="legStroke" stroke-width="3" d="M105 280.8v-16.6"></path><path class="legStroke" stroke-width="4" d="M74.1 250c0 10.2 0 20.4-.2 30.9m62-30.8.1 30.8"></path><path class="legStroke" stroke-width="3" d="M74.3 249.2a57.8 57.8 0 0 0 30.2 7.8c10.7 0 21.7-2.4 31-7.8"></path><path class="legStroke" stroke-width="1.8" d="M109 263s-2.4.4-4 .4-4-.4-4-.4"></path><path class="legStroke" stroke-width="2.5" d="M135.3 281.7a24.7 24.7 0 0 1-30.3-.7M74.7 276.4a24 24 0 0 0 29.8-.7"></path><path class="legStroke" stroke-width="2.5" d="M135.3 276.4a24.7 24.7 0 0 1-30.3-.7"></path></svg><svg xmlns="http://www.w3.org/2000/svg" width="210" height="335" fill="none"><style>.shColor1{fill:#575757;}.shColor2 {fill:#FFF;}.shStroke{stroke:#000;stroke-linecap:round;stroke-miterlimit:10;}</style><path class="shColor1" d="M75.4 281.7c1-.2 3.3 3.7 13.8 4 9.7.2 15.8-4.9 15.8-4.9s6.1 5 15.8 4.9c10.5-.3 12.7-4.2 13.6-4 2.9.4 7.2 3 6 6.4 3.7 4 6 8.4 7.4 14.2l.1.4.2 2c0-.4-.5 4.8-.8 4.6a19.3 19.3 0 0 0-9-3c-6.8.7-15.7 2-18.3 7.8-1.7 3.6-2.5 4.2-2 5.7-4.6-1-6.3-2-9.8-5.1-.5-.5-2.8-2.5-3.2-3.6-.5 1-2.6 3.1-3.1 3.6-3.7 3.1-4.5 4-9.2 5.1.4-1.5-1.4-2.1-3-5.7-2.7-5.8-10.5-7-17.4-7.7-2.5-.3-6.7 1.6-9 2.9-.3.2-1.4-5.1-1.4-4.7 0-.8.1-1.6.3-2.3a29.2 29.2 0 0 1 8.1-14.2c-1.3-3.3 2.2-6 5.1-6.4Z"></path><path class="shColor2" d="m148.5 304.5 2.2 11c.6 2 .6 2.2-.8 4.6-1 1.5-7.1 9-21.2 9.4-14.5.6-21.8-5.6-23-7.5l-.1-9.2c.4 1 3.4 2.3 4 2.7 3.5 3.1 6.7 5.2 11.4 6.3l2 .2c6 1.2 11.6-1.5 16.8-4.6 2.9-1.6 5.4-2 7-4.6 1-1.9 2-4 2-6.4 0-.7-.2-1.3-.3-2ZM61.5 304.5l-2.2 11c-.6 2-.6 2.2.8 4.6 1 1.5 7.1 9 21.2 9.4 14.5.6 21.8-5.6 23-7.5l.1-9.2c-.4 1-3.4 2.3-4 2.7-3.5 3.1-6.7 5.2-11.4 6.3l-2 .2c-6 1.2-11.6-1.5-16.8-4.6-2.9-1.6-5.4-2-7-4.6-1-1.9-2-4-2-6.4 0-.7.2-1.3.3-2Z"></path><path class="shColor2" d="M146.9 310.7a9.2 9.2 0 0 1-3.1 4.8c-2 2-5 4-8 4.8-5.3 1.5-10.8 2.9-15.8.4l-2.5-1.3c0-1.5 2.2-4.3 4.5-7.1a17.8 17.8 0 0 1 16.3-6c2.3.5 5.4.5 7 2.1.2.3 1.6 1.9 1.6 2.3ZM63.5 310.7a9.2 9.2 0 0 0 3.1 4.8c2 2 5 4 8 4.8 5.3 1.5 10.8 2.9 15.8.4l2.5-1.3c0-1.5-2.2-4.3-4.5-7.1a17.8 17.8 0 0 0-16.3-6c-2.3.5-5.4.5-7 2.1-.2.3-1.6 1.9-1.6 2.3Z"></path><path class="shStroke" stroke-width="3" d="M105 321.8v-25"></path><path class="shStroke" stroke-width="2" d="M98 293c2.5.2 5.2-.5 7-2"></path><path class="shStroke" stroke-width="2.5" d="M74.8 281.6a24 24 0 0 0 29.8-.7"></path><path class="shStroke" stroke-width="3" d="M62.6 310.4c4.4 6.7 12.4 11 20.5 11.2 8.2.1 16.3-3.8 21-10.3"></path><path class="shStroke" stroke-width="2" d="M92.4 319.2a19.4 19.4 0 0 0-12-11.8c-5.7-1.8-12.1-1-17 2.2"></path><path class="shStroke" stroke-width="4" d="M74 280.8a9.4 9.4 0 0 0-4 9.4c-5 4.3-8 11-8 17.7 0 1.4-.8 2.8-1.6 4-.6.9-1 2-1 3l-.2 1.7a9 9 0 0 0 2.9 7 31.3 31.3 0 0 0 41.7-1m32.3-41.8a9.5 9.5 0 0 1 4 9.4c5 4.3 8 11 8 17.7 0 1.4.8 2.8 1.5 4 .6.9 1 2 1.1 3l.2 1.7a9 9 0 0 1-3 7 31.3 31.3 0 0 1-41.6-1"></path><path class="shStroke" stroke-width="2" d="M112 293c-2.5.2-5.2-.5-7-2"></path><path class="shStroke" stroke-width="2.5" d="M135.3 281.6a24.7 24.7 0 0 1-30.2-.7"></path><path class="shStroke" stroke-width="3" d="M147.4 310.4a25.6 25.6 0 0 1-20.5 11.2c-8.1.1-16.3-3.8-21-10.3"></path><path class="shStroke" stroke-width="2" d="M117.6 319.2c2-5.5 6.5-10 12.1-11.8 5.6-1.8 12-1 17 2.2"></path><path class="shColor2" d="M76.6 295.2a4 4 0 0 1 4.3-3c3.4.3 6.7 1.2 9.9 2.6 1.7.8 2.6 2.7 2.1 4.6l-.3 1.2c-.6 2-2.9 3.1-4.8 2.3a26 26 0 0 0-8.5-2.3 3.4 3.4 0 0 1-3-4.2l.3-1.2ZM133.5 295.2a4 4 0 0 0-4.3-3c-3.4.3-6.7 1.2-9.9 2.6a3.9 3.9 0 0 0-2.1 4.6l.3 1.2c.6 2 2.9 3.1 4.8 2.3a26 26 0 0 1 8.5-2.3 3.4 3.4 0 0 0 3-4.2l-.3-1.2Z"></path><path class="shStroke" stroke-width="2" d="M76.6 295.2a4 4 0 0 1 4.3-3v0c3.4.3 6.7 1.2 9.9 2.6v0c1.7.8 2.6 2.7 2.1 4.6l-.3 1.2c-.6 2-2.9 3.1-4.8 2.3v0a26 26 0 0 0-8.5-2.3v0a3.4 3.4 0 0 1-3-4.2l.3-1.2ZM133.5 295.2a4 4 0 0 0-4.3-3v0c-3.4.3-6.7 1.2-9.9 2.6v0a3.9 3.9 0 0 0-2.1 4.6l.3 1.2c.6 2 2.9 3.1 4.8 2.3v0a26 26 0 0 1 8.5-2.3v0a3.4 3.4 0 0 0 3-4.2l-.3-1.2Z"></path></svg><svg xmlns="http://www.w3.org/2000/svg" width="210" height="335" fill="none"><style>.bodyColor1 {fill: #FFE7F0}.bodyColor2 {fill: #EAAEC7}.handsColor {fill: #EAD7FF}.jacketShirt {fill: #FFF}.bStr1 {stroke: #000;stroke-linecap: round;stroke-miterlimit: 10;}.bStr2 {stroke: #000;stroke-linecap: round;stroke-linejoin: round;}.bStr3 {stroke: #000;stroke-linecap: round;stroke-opacity: .1;stroke-width: 2;}</style><path class="handsColor" d="m55.9 209.2 13.9 6.7-4.5 17.8 2 12-3 5.8-8.4 1.4H44.4l-9.4-7.2 1.5-13.4 10.4-6.8 9-16.3ZM154.2 210.2l-14 6.7 4.5 17.8-2 12 3 4.8 8.5 2.4h11.4l9.4-7.2-1.5-13.5-10.4-6.7-9-16.3Z"></path><path class="bodyColor1" d="M73.7 186.1S92.5 182 105 182a186 186 0 0 1 31.3 4.1l8.4 6.3 11.4 13-15.6 9 4.2 28.4-8.4 8.7-15.4 4.8-15.9 1.4-15.9-1.4-15.4-4.8-8.4-8.7 4.2-28.3-14.1-9.2 9.9-13 8.4-6.2Z"></path><path class="bStr1 bStr3" stroke-dasharray="5 5" d="M125 191.3c0 9.2-9 16.7-20 16.7s-20-7.5-20-16.7 9-9.3 20-9.3 20 0 20 9.3Z"></path><path class="bStr1" stroke-width="4" d="M55.9 209.4c-2.6 4.3-5.1 8.6-7.7 13.5a16.2 16.2 0 0 1-6 5.8 15 15 0 0 0-7 10.1 13.6 13.6 0 0 0 7.4 14.1c4.2 2 9.5 1.4 13.3-1.2"></path><path class="bStr1" stroke-width="2" d="M57.8 247.6a11.2 11.2 0 0 1-5 4.8M152.2 247.6c1.5 2.4 2.4 3.4 5 4.8"></path><path class="bStr1" stroke-width="4" d="M56 251.7a8 8 0 0 0 7.9 0 7.1 7.1 0 0 0 3.7-6.5"></path><path class="bStr1" stroke-width="3" d="m70.1 218.2 3.1-10.7M139.8 218.2l-3-10.7M67.8 245.3a55.3 55.3 0 0 0 36.7 12.4"></path><path class="bStr1" stroke-width="4" d="M74.1 250.8c-2-2-4.1-3.3-5.9-5a10 10 0 0 1-3.2-6c-.2-1.6.2-3.2.6-4.8l4.7-19.4a25.6 25.6 0 0 1-13.7-8.2c-1.1-1.3-1-3.1 0-4.5 2.8-4 5.9-8 9.6-11.6 4.5-4.2 10-7.4 16.3-8h45c6.2.6 11.8 3.8 16.2 8 3.8 3.5 6.8 7.7 9.7 11.6 1 1.4 1 3.2 0 4.5-3.4 4-8.3 7-13.7 8.2l4.7 19.4c.4 1.6.7 3.2.6 4.8a10 10 0 0 1-3.3 6c-1.7 1.7-3.8 3-5.9 5"></path><path class="bStr1" stroke-width="3" d="M142.2 245.3a58.7 58.7 0 0 1-37.7 12.4"></path><path class="bStr1" stroke-width="4" d="M154 209.4c2.5 4.3 5 8.6 7.6 13.5 1.3 2.5 3.7 4.3 6.1 5.8a15 15 0 0 1 7 10.1c.9 5.6-2.2 11.6-7.4 14.1-4.2 2-9.6 1.4-13.3-1.2M153.8 251.7a8 8 0 0 1-7.8 0c-2.4-1.4-3.9-3.3-3.8-6"></path><path class="handsColor" d="M121 190.6c0 7.5-7.2 13.5-16 13.5s-16-6-16-13.5 7.2-7.6 16-7.6 16 0 16 7.6Z"></path><path class="bStr1" stroke-width="2.5" d="M121 190.6c0 7.5-7.2 13.5-16 13.5s-16-6-16-13.5 7.2-7.6 16-7.6 16 0 16 7.6Z"></path></svg><svg xmlns="http://www.w3.org/2000/svg" width="210" height="335" fill="none"><path fill="#EAD7FF" stroke="#000" stroke-linecap="round" stroke-linejoin="round" stroke-width="1.752" d="M105.8 222.2c6.5-6.7 15.4 1 9 8.1a13.6 13.6 0 0 1-10 4.5c-3.7-.1-7.4-1.6-9.8-4.5-6-7 3-14.8 9.4-8 .5.5.8.5 1.4 0Z"></path></svg><svg xmlns="http://www.w3.org/2000/svg" width="210" height="335" fill="none"><path fill="#EAD7FF" d="M143.3 104.8c-.8.8-2.2.3-2.2-.9v-3.3c-1.3-46.1-71-46.1-72.2 0v3.3c0 1.1-1.4 1.7-2.2 1a145 145 0 0 0-2.4-2.4c-33.6-31.7-82.8 17.4-51 50.9l2.3 2.4A138.4 138.4 0 0 0 105 194s51 0 89.4-38.2l2.4-2.4c31.7-33.5-17.5-82.6-51-51l-2.5 2.4Z"></path><circle cx="4" cy="4" r="4" fill="#fff" fill-opacity=".5" transform="matrix(-1 0 0 1 199.3 126)"></circle><path fill="#fff" fill-opacity=".5" d="M195.5 117.5a5 5 0 0 1-9 4 6.7 6.7 0 0 0-.3-.7l-1.2-2c-1-1.7-2.3-3.5-3.6-4.6-1.5-1.2-2.6-2-3.7-2.5l-1.7-.8a3 3 0 0 1-1.4-4l.1-.3c.8-1.5 0-3.3-1.5-3.5-1.9-.3-3.4-.3-5-.2h-.1a1.8 1.8 0 0 1-.3-3.5 23.6 23.6 0 0 1 16.6 4.8c1 .7 2.2 1.5 3.3 2.5a29.2 29.2 0 0 1 7.7 10.4v.3h.1"></path><path stroke="#000" stroke-linecap="square" stroke-linejoin="round" stroke-width="4" d="M143.3 104.8v0c-.8.8-2.2.3-2.2-.9v0-3.3c-1.3-46.1-71-46.1-72.2 0v3.3c0 1.1-1.4 1.7-2.2 1v0a145 145 0 0 0-2.4-2.4c-33.6-31.7-82.8 17.4-51 50.9l2.3 2.4A138.4 138.4 0 0 0 105 194s51 0 89.4-38.2l2.4-2.4c31.7-33.5-17.5-82.6-51-51l-2.5 2.4Z"></path></svg><svg xmlns="http://www.w3.org/2000/svg" width="210" height="335" fill="none"><style>.faceStrokeColor{stroke:#000} .faceFillColor{fill:#000} .skinColorBase{fill:#EAD7FF} .skinColorLight{fill:#F3EAFF} .skinColorDark{fill:#C3B3D5} .mouthOverlay{fill:#000}</style><path class="faceFillColor" fill-opacity=".12" d="M74.7 154.2a1.5 1.5 0 1 1-2.5-1.5 1.5 1.5 0 0 1 2.5 1.5Zm5.1 3a1.5 1.5 0 1 1-2.5-1.5 1.5 1.5 0 0 1 2.5 1.4Zm-4.5 1.9a1.5 1.5 0 1 1-2.5-1.5 1.5 1.5 0 0 1 2.5 1.5Zm55.4-3.4a1.5 1.5 0 1 1-2.5 1.4 1.5 1.5 0 0 1 2.5-1.4Zm5.1-3a1.5 1.5 0 1 1-2.5 1.5 1.5 1.5 0 0 1 2.5-1.5Zm-.6 4.9a1.5 1.5 0 1 1-2.5 1.5 1.5 1.5 0 0 1 2.5-1.5Z"></path><path class="faceFillColor" fill-rule="evenodd" d="M94.1 139c.7-.4 1-1.1.8-1.8-1.4-3.7-4.5-6.2-8-6.2-5 0-8.9 4.7-8.9 10.4s4 10.4 8.8 10.4c3.5 0 6.5-2.4 8-5.8.3-.7-.1-1.5-.8-1.8l-3.6-1.5c-1-.4-1-1.8 0-2.2l3.7-1.6Zm20.8 2.4c0-5.7 4-10.4 8.8-10.4 3.7 0 7 2.7 8.2 6.5.3.7-.1 1.4-.8 1.7l-3 1.3c-1 .4-1 1.8 0 2.2l2.9 1.2c.7.3 1 1 .8 1.8-1.4 3.6-4.5 6.1-8 6.1-5 0-8.9-4.7-8.9-10.4Z" clip-rule="evenodd"></path><path class="faceFillColor" d="M105 172c-15 0-20.6-8-18.6-13.6 1.4-4.1 6-6.4 10.4-5a35 35 0 0 0 8.2 1.6c2.3 0 6.3-1 8.2-1.6 4.3-1.4 9 .9 10.4 5 2 5.5-3.6 13.6-18.6 13.6Z"></path><path class="faceStrokeColor" fill="#FFDFE7" stroke-width="2.75" d="M98.7 161.4h1.3l1.7.4 1 .3.8.2 1.5.2 1.5-.2.9-.2.9-.3a21.3 21.3 0 0 1 1.8-.3l1.2-.1c2.2.3 3.6 1.3 4.4 2.6a8 8 0 0 1 .7 5.2 11.1 11.1 0 0 1-11.4 9.4 11.1 11.1 0 0 1-11.4-9.4c-.4-2-.1-3.8.7-5.2.8-1.3 2.2-2.3 4.4-2.6Z"></path><path fill="#F5C8D4" d="M106 163.8v7a1 1 0 0 1-2 0v-7l1 .2 1-.2Z"></path></svg><svg xmlns="http://www.w3.org/2000/svg" width="250" height="335" x="-14" fill="none"><style>.headwearColorB { fill:#FFD2DD}.hwStr1 {stroke: #000;stroke-linecap: round;stroke-linejoin: round;}</style><path fill="#000" d="M35.8 160.6 21.6 157l6.6 5.9 11 2.3-3.4-4.6Zm166.1 0L216 157l-6.6 5.9-11 2.3 3.5-4.6Z"></path><path class="hwStr1" stroke-width="4" d="M75.5 192.9c4.2-1.2 8.8-2.5 13-3.1m73.5 3.1a94.6 94.6 0 0 0-13-3.1"></path><path class="headwearColorB" fill-rule="evenodd" d="M148.4 191.2h-.2l-.6.2a178 178 0 0 1-9.7 2.2c-6 1.2-13.4 2.4-19.2 2.4a104 104 0 0 1-19.1-2.4 206.5 206.5 0 0 1-9.6-2.2l-.6-.1h-.7l-1 .1a51.5 51.5 0 0 0-5.8 1.4h-.3l-.5.2.4.2a14.3 14.3 0 0 0 .7.2 61.4 61.4 0 0 0 9.5 2.6 126 126 0 0 0 64-2.8h.2l.5-.2-.5-.1-.3-.1-.9-.2a72.3 72.3 0 0 0-6.2-1.4Zm7.5 2v-.2.2Zm-74.4 0v-.2.2Zm7.7-2v.2-.2Z" clip-rule="evenodd"></path><path fill="#000" fill-opacity=".3" fill-rule="evenodd" d="M148.4 191.2h-.2l-.6.2a178 178 0 0 1-9.7 2.2c-6 1.2-13.4 2.4-19.2 2.4a104 104 0 0 1-19.1-2.4 206.5 206.5 0 0 1-9.6-2.2l-.6-.1h-.7l-1 .1a51.5 51.5 0 0 0-5.8 1.4h-.3l-.5.2.4.2a14.3 14.3 0 0 0 .7.2 61.4 61.4 0 0 0 9.5 2.6 126 126 0 0 0 64-2.8h.2l.5-.2-.5-.1-.3-.1-.9-.2a72.3 72.3 0 0 0-6.2-1.4Zm7.5 2v-.2.2Zm-74.4 0v-.2.2Zm7.7-2v.2-.2Z" clip-rule="evenodd"></path><path fill="#fff" fill-opacity=".3" d="M75 192.9a124.3 124.3 0 0 1-44-23.7c-12.8-11.2-23.5-25-22.6-42a49.4 49.4 0 0 1 24-38.3c13-7.1 29.9-7 42.8.4a50.7 50.7 0 0 1 16.4-23 43 43 0 0 1 27-8.6 43 43 0 0 1 27 8.6 50.7 50.7 0 0 1 16.5 23c13-7.4 29.7-7.5 42.8-.4a49.4 49.4 0 0 1 24 38.3c.9 17-9.8 30.8-22.6 42a124.3 124.3 0 0 1-44.2 23.7 100 100 0 0 1-21.4 5.9A135.6 135.6 0 0 1 75 193v-.1Z"></path><path class="hwStr1" stroke-width="4" d="M90 197.3c-5-1-10-2.6-14.7-4.4A124.4 124.4 0 0 1 31.1 169a99 99 0 0 1-9.6-9.6 46 46 0 0 1-13-32.5c.5-7.6 3.4-15.6 7.8-22.6a46 46 0 0 1 16.2-15.6c13.1-7.2 29.9-7 42.9.4a50.7 50.7 0 0 1 16.4-23 43 43 0 0 1 27-8.6 43 43 0 0 1 27 8.5 50.7 50.7 0 0 1 16.4 23.1c13-7.4 29.8-7.6 42.9-.4a46 46 0 0 1 16.2 15.6c4.4 7 7.3 15 7.7 22.6a45.6 45.6 0 0 1-13 32.5 99 99 0 0 1-9.6 9.6 124.4 124.4 0 0 1-44.1 23.8 100 100 0 0 1-21.5 5.8 135.6 135.6 0 0 1-50.8-1.4Z"></path><path fill="#fff" d="M90 197.3c-5-1-10-2.6-14.7-4.4A124.4 124.4 0 0 1 31.1 169a99 99 0 0 1-9.6-9.6s38 20.7 97.3 20.7 97.2-20.7 97.2-20.7a99 99 0 0 1-9.6 9.6 124.4 124.4 0 0 1-44.1 23.8 100 100 0 0 1-21.5 5.8 135.6 135.6 0 0 1-50.8-1.4Z"></path><path class="hwStr1" stroke-width="4" d="M90 197.3c-5-1-10-2.6-14.7-4.4A124.4 124.4 0 0 1 31.1 169a99 99 0 0 1-9.6-9.6s38 20.7 97.3 20.7 97.2-20.7 97.2-20.7a99 99 0 0 1-9.6 9.6 124.4 124.4 0 0 1-44.1 23.8 100 100 0 0 1-21.5 5.8 135.6 135.6 0 0 1-50.8-1.4Z"></path><path class="hwStr1" stroke-opacity=".3" stroke-width="3" d="M49 180.5c11.7 3.6 28.6 7.7 48.2 9.6m91.2-9.8c-12 3.7-29.3 8-49.6 9.9"></path><circle class="headwearColorB" cx="118.3" cy="192.3" r="2.7"></circle><circle cx="118.3" cy="192.3" r="2.7" stroke="#000" stroke-width="2.5"></circle><circle class="headwearColorB" cx="106.7" cy="191.8" r="2.2"></circle><circle cx="106.7" cy="191.8" r="2.2" stroke="#000" stroke-width="2.5"></circle><circle class="headwearColorB" cx="129.9" cy="191.8" r="2.2"></circle><circle cx="129.9" cy="191.8" r="2.2" stroke="#000" stroke-width="2.5"></circle><path fill="#fff" d="M3.2 115.6h7.5s-2 5.2-2 13.5 2 13.5 2 13.5H3.2s-2-4.2-2-13.5 2-13.5 2-13.5Z"></path><path class="hwStr1" stroke-width="4" d="M3.1 118.8c.4-2 2.2-3.2 4.2-3.2h3.4S9 120.8 9 129.1s1.8 13.5 1.8 13.5H7.3c-2 0-3.8-1.3-4.2-3.2a56.1 56.1 0 0 1 .1-20.6Z"></path><path fill="#fff" d="M234.1 115.6h-7.5s2 5.2 2 13.5-2 13.5-2 13.5h7.5s2-4.2 2-13.5-2-13.5-2-13.5Z"></path><path class="hwStr1" stroke-width="4" d="M234.2 118.8c-.4-2-2.1-3.2-4.1-3.2h-3.5s1.8 5.2 1.8 13.5-1.8 13.5-1.8 13.5h3.5c2 0 3.7-1.3 4.1-3.2a51.6 51.6 0 0 0 0-20.6Z"></path><path stroke="#000" stroke-linecap="round" stroke-width="4" d="M9 116V93.4M228.4 116V93.4"></path><circle cx="8.9" cy="91" r="4.7" fill="#fff"></circle><circle cx="8.9" cy="91" r="6.7" stroke="#000" stroke-width="4"></circle><circle cx="228.4" cy="91" r="4.7" fill="#fff"></circle><circle cx="228.4" cy="91" r="6.7" stroke="#000" stroke-width="4"></circle></svg></svg><defs><radialGradient id="SvgjsRadialGradient1004" cx="0" cy="0" r="1" gradientTransform="matrix(275 -275 362 362 0 275)" gradientUnits="userSpaceOnUse"><stop stop-color="#DFFFBF"></stop><stop offset="1" stop-color="#EFD"></stop></radialGradient><radialGradient id="SvgjsRadialGradient1003" cx="0" cy="0" r="1" gradientTransform="matrix(275 -275 362 362 0 275)" gradientUnits="userSpaceOnUse"><stop stop-color="#FFE7F0"></stop><stop offset="1" stop-color="#FFF3F8"></stop></radialGradient><radialGradient id="SvgjsRadialGradient1002" cx="0" cy="0" r="1" gradientTransform="matrix(275 -275 362 362 0 275)" gradientUnits="userSpaceOnUse"><stop stop-color="#F1E4FF"></stop><stop offset="1" stop-color="#F8F1FF"></stop></radialGradient><radialGradient id="SvgjsRadialGradient1001" cx="0" cy="0" r="1" gradientTransform="matrix(275 -275 362 362 0 275)" gradientUnits="userSpaceOnUse"><stop stop-color="#E6EAFF"></stop><stop offset="1" stop-color="#EFF2FF"></stop></radialGradient><radialGradient id="SvgjsRadialGradient1000" cx="0" cy="0" r="1" gradientTransform="matrix(275 -275 362 362 0 275)" gradientUnits="userSpaceOnUse"><stop stop-color="#FFE7A5"></stop><stop offset="1" stop-color="#FFF2CE"></stop></radialGradient></defs></svg><style>@media (prefers-color-scheme: light) { :root { filter: none; } }
</style></svg>